<svg xmlns="http://www.w3.org/2000/svg" viewBox="0 0 106.87 72.5">
  <style>
    .bg { fill: #c6c6c6; }
    .fg { fill: #1d1d1b; }
    @media (prefers-color-scheme: dark) {
      .bg { fill: #706f6f; }
      .fg { fill: #fff; }
    }
  </style>
  <path class="bg" d="M77.33,70.8a33.49,33.49,0,0,0,8.55-23.61c0-.65-.07-1.28-.13-1.92a42.5,42.5,0,0,0-6.86-16.59C77.71,27,75.54,29,75.54,29l-2,1.67-4.35-1.46-7.5-2.73-4.89,1.84L55.27,33l8,7.53,2.59,9.23-.22,6L72.06,71Z"/>
  <path class="bg" d="M57.39,20.82l3.66,1.72-.39,1.38-4.16.15.09,2.55,5.88-1.51,5.29,2.05,5.36,2.7,3.49-4A13.34,13.34,0,0,0,74.31,23a32.24,32.24,0,0,0-20.79-8.2l-.13,2.75,3.91.72Z"/>
  <path class="bg" d="M29.61,71.05l1.2-1.39,2.38-.55,3.09-3.91,4.3-3.75-.6-2.9L36.86,56,33,54.59l1.45-2.05-.11-2.75-2-1.85-1-1.94-2.87-1.31-1.38-1-5.24-.19.42-3.41-1.16-1.31,1.64-2.07-1.43-.19-.56.23a34.5,34.5,0,0,0-1.31,4.49l.81.78,0,.92,1,1.5,2,.75-.66,1.67-3.89,3.27a30.93,30.93,0,0,0,.39,3.64l.76,1.33-.34.85A33.46,33.46,0,0,0,27.5,71.06"/>
  <path class="bg" d="M40,20.89v-.51l2.1,0,.08-.8-1.09-.11-.73-.31,1.46-.76-.34-.9A8.4,8.4,0,0,1,40,17.15,33.71,33.71,0,0,0,22.55,32.81l1-.47,2.69.13-.15,3.21.73-.23,1.63-2.4,3.18-2.95h3.62l1.65-1.18,2,.51.64-2.06,1.94.7.9.36.11-2.08-.78-.66.36-1-1.9-1.62-1,.82L36,25.35,35.14,23l2.79-.53L40.7,22,43,23.42l.31-1.81A18.61,18.61,0,0,0,40,20.89Z"/>
  <path class="bg" d="M90.94,65.75l2-6.15-1.26-2.78L89,55.68l.6-5.25,2.68-1.09,1.53-2.75-.55-6.68L90.8,33l-2-1.36-3,.15-2.5-4.53,1.78-2,.21-2.09-6.74-7.24-2.91,3.75L80,23.49l-3.86-.37S82.89,30,85.23,39l2.09-2.17,1.77,8.41-2.45-.9s1.85,9.12-2,17.17l2.88-1-3.44,8.22-1.4-2.24a13.17,13.17,0,0,1-2.32,3.76l1.3.79H88Z"/>
  <path class="bg" d="M69.13,16.74l.23-2.48,3.58,3,4.18-2.47-7.83-6L67,8.9l-1.36.91c1,1.88,1.37,4.06,1.92,6.11C68.54,16.42,69.13,16.74,69.13,16.74Z"/>
  <polygon class="fg" points="45.68 13.39 44.37 36.41 45.76 36.37 48.77 36.29 51.38 36.22 52.64 13.78 61.48 14.29 61.87 7.35 61.88 7.35 61.87 7.34 61.88 7.33 61.87 7.33 60.41 4.52 38.83 3.29 37.23 5.89 37.23 5.92 36.84 12.88 45.68 13.39"/>
  <path class="fg" d="M55.78,64.76a.56.56,0,0,0-.49.35.91.91,0,0,0,0,.63c.22,1.24.44,2.48.63,3.73.08.54.18,1.07.25,1.6h1.72c-.6-2-1.19-3.94-1.8-5.91C56,65,56,64.77,55.78,64.76Z"/>
  <path class="fg" d="M63.73,56.74c-.26-.71-.27-.71-.83-.23a5.15,5.15,0,0,1-3.11,1.34c.06-.08.07-.12.1-.14a1.32,1.32,0,0,1,.2-.12,6.67,6.67,0,0,0,2.84-2.34,2.78,2.78,0,0,0,.6-2.07c-.29,0-.6,0-.78.28s-.42.25-.64,0a2.78,2.78,0,0,1-.21-.27c-.11-.13-.2-.37-.39-.24s0,.3.08.44.56.53.19.78-.52-.2-.7-.44a1.9,1.9,0,0,1-.39-.71l-.1-.12-.11-.13-.1-.13-.1-.13c-.21-.41,0-.39.31-.31a1.19,1.19,0,0,0,1.63-.52c.3-.48.73-.28,1.14-.25v-.24L63,50.81c-.32-.35-.25-.59.2-.71-.23-1.92-.45-3.83-.68-5.75a4.07,4.07,0,0,0-1-2.82c-1.8-1.62-3.58-3.25-5.37-4.88a2.55,2.55,0,0,0-2.86-.51c-1.13.44-2.25.88-3.37,1.3-.42.16-.5.35-.24.74a.82.82,0,0,1,.17.92,5.26,5.26,0,0,1-3.42,1c-.14-.07-.29-.17-.27-.35s.25-.12.38-.11a5,5,0,0,0,2.5-.42c.39-.16.46-.42.32-.8s-.28-.64-.76-.49c-.82.25-1.65.46-2.46.71a.83.83,0,0,0-.56,1.23,3.12,3.12,0,0,0,2.1,1.93,9.17,9.17,0,0,0,4.68,0C53.77,41.53,55,40.91,55,39c.11.25.16.33.19.42a3.21,3.21,0,0,1-.1,1.89,2,2,0,0,0,.69,2.14c.53.55,1.05.29,1.61.08a2.41,2.41,0,0,1,1-.28,6.8,6.8,0,0,1-1.68,1.29,2.23,2.23,0,0,0-1.06,1.08,14.21,14.21,0,0,0-1,5.23,8.44,8.44,0,0,0,1.6,5.48,9.32,9.32,0,0,0,.79.89c-.17.13-.27,0-.37,0a13.84,13.84,0,0,1-2.45-1.34c-.37-.24-.54-.25-.55.26a5.43,5.43,0,0,1-.17,1.21c-.69,2.5-1.18,5-1.73,7.56a10,10,0,0,0-.3,3.13c.1,1,.21,2,.31,3h4.09c-.14-.51-.28-1-.43-1.54a35.79,35.79,0,0,0-1.31-4.28c-.11-.27.1-.3.22-.38l1.53-1c.34-.22.75-.71,1-.63.41.14.23.74.33,1.14q.78,3.33,1.54,6.66H68.94C67.18,66.3,65.47,61.52,63.73,56.74Z"/>
  <path class="fg" d="M40.38,51.57l3,.32v0a23.88,23.88,0,0,1,3.41.32c1.57.41,3.15.71,4.72,1.06a1.64,1.64,0,0,0,1.71-1.15c.29-1,.07-1.73-.71-2.09-.54-.25-1.11-.46-1.67-.67a21.21,21.21,0,0,0-7.1-1.7,12.16,12.16,0,0,1-2.93-.45.71.71,0,0,0-.57,0,2.38,2.38,0,0,0-1.34,2,2.7,2.7,0,0,0,1,2.23A.75.75,0,0,0,40.38,51.57Zm10.93-1.12a.77.77,0,0,1,.54-.18c.12,0,.31,0,.32.16s-.15.16-.27.17c-.6.06-.77.5-.91,1a.82.82,0,0,0,.44,1s.06.09.12.19a.73.73,0,0,1-.82-.53A2.3,2.3,0,0,1,51.31,50.45Zm-5.25-.25c.43-.15.28-.48.37-.72s.09-.53.45-.75a4.08,4.08,0,0,1-.39,2.09c-.06.13-.19.27-.31.15S45.89,50.26,46.06,50.2Z"/>
  <path class="fg" d="M46.56,43.81q-2.51-.83-5-1.68a1.06,1.06,0,0,0-.5,0A2,2,0,0,0,39.8,43a2.07,2.07,0,0,0,1,3.14c1.3.22,2.6.48,3.92.59a19.13,19.13,0,0,1,5.81,1.44,5.61,5.61,0,0,0,1.92.49,1.33,1.33,0,0,0,1.38-.86A3.27,3.27,0,0,0,54,46.28c0-.24-.1-.45-.39-.49-1-.13-1.43.21-1.66,1.17-.12.53.22.78.47,1.13-.45-.07-.79-.31-.81-.74a2.87,2.87,0,0,1,.42-1.44c.28-.57.91-.24,1.37-.47a2,2,0,0,0-2.1-.68c-.27.06-.55.21-.79.12-.86-.33-1.81-.18-2.65-.6-.32-.16-.61,0-.58.43a1.71,1.71,0,0,1-.41,1.18c.12-.42-.11-.86.07-1.23S47,44,46.56,43.81Z"/>
  <path class="fg" d="M50.59,54.64a24.92,24.92,0,0,0-6.32-1.46c-1.05-.06-2.1-.08-3.14-.21a1.7,1.7,0,0,0-1.8,1,1.62,1.62,0,0,0,.25,2c.83.92,1.68,1.82,2.53,2.72L41.4,71.07h7l.71-12.69-1.39-.11-1.38-.1-1.44-.12-.69,0a1.43,1.43,0,0,0-.31-.12c1.88,0,1.14-.9,3-.72,1,.09,1.89.22,2.84.29a1.49,1.49,0,0,0,1.57-1.19C51.49,55.38,51.3,54.88,50.59,54.64Zm-5.35.9c-.28-.33-.1-.61,0-.89A.91.91,0,0,1,45.24,55.54Zm.95-1.25c0,.14,0,.24-.08.33s0,.55-.26.5-.11-.39-.1-.6a.77.77,0,0,1,.11-.27c.06-.11.1-.3.26-.26S46.17,54.22,46.19,54.29Zm3.63,2.56c-.53,0-.8-.21-.79-.74,0-1,.29-1.34.93-1.28C49.18,55.53,48.91,56.22,49.82,56.85Z"/>
  <path class="fg" d="M45.88,37.73c.1,0,.23-.06.26-.2s-.14-.13-.23-.15a17,17,0,0,0-3.16-.45,1.42,1.42,0,0,0-1,.37,2.15,2.15,0,0,0-.89,2.08,2.33,2.33,0,0,0,1.63,1.95c.72.22,1.47.36,2.21.54.35.08.48,0,.34-.4a6.39,6.39,0,0,1-.39-1.14A2,2,0,0,1,45.88,37.73Z"/>
</svg>
